HIERARCHY
ROOT Hips
{
  OFFSET 366.968 89.8584 201.872
  CHANNELS 6 Xposition Yposition Zposition Zrotation Xrotation Yrotation
  JOINT RightUpLeg
  {
    OFFSET -9.27335 -1.56761 0.0107022
    CHANNELS 6 Xposition Yposition Zposition Zrotation Xrotation Yrotation
    JOINT RightLeg
    {
      OFFSET -0.00417653 -41.8888 0.0332927
      CHANNELS 6 Xposition Yposition Zposition Zrotation Xrotation Yrotation
      JOINT RightFoot
      {
        OFFSET 0.53573 -42.1246 0.242416
        CHANNELS 6 Xposition Yposition Zposition Zrotation Xrotation Yrotation
        End Site
        {
          OFFSET 0 -7.69 17.5
        }
      }
    }
  }
  JOINT LeftUpLeg
  {
    OFFSET 9.28656 -1.61166 -0.0155815
    CHANNELS 6 Xposition Yposition Zposition Zrotation Xrotation Yrotation
    JOINT LeftLeg
    {
      OFFSET 0.0376823 -41.8816 -0.00845193
      CHANNELS 6 Xposition Yposition Zposition Zrotation Xrotation Yrotation
      JOINT LeftFoot
      {
        OFFSET -0.126491 -41.5001 -0.19715
        CHANNELS 6 Xposition Yposition Zposition Zrotation Xrotation Yrotation
        End Site
        {
          OFFSET 0 -7.69 17.5
        }
      }
    }
  }
  JOINT Spine
  {
    OFFSET 0.0229025 14.3001 0.0223296
    CHANNELS 6 Xposition Yposition Zposition Zrotation Xrotation Yrotation
    JOINT Spine1
    {
      OFFSET 0.013513 9.71978 0.0100827
      CHANNELS 6 Xposition Yposition Zposition Zrotation Xrotation Yrotation
      JOINT Spine2
      {
        OFFSET 0.0255674 10.1141 0.00109509
        CHANNELS 6 Xposition Yposition Zposition Zrotation Xrotation Yrotation
        JOINT Spine3
        {
          OFFSET 0.0238651 9.71689 -0.00248792
          CHANNELS 6 Xposition Yposition Zposition Zrotation Xrotation Yrotation
          JOINT Neck
          {
            OFFSET 0.0180927 10.3846 0.0154169
            CHANNELS 6 Xposition Yposition Zposition Zrotation Xrotation Yrotation
            JOINT Head
            {
              OFFSET 0.0126586 9.47051 0.0094727
              CHANNELS 6 Xposition Yposition Zposition Zrotation Xrotation Yrotation
              End Site
              {
                OFFSET 0 15.95 0
              }
            }
          }
          JOINT RightShoulder
          {
            OFFSET -3.18283 6.92816 0.00496977
            CHANNELS 6 Xposition Yposition Zposition Zrotation Xrotation Yrotation
            JOINT RightArm
            {
              OFFSET -12.792 -0.0136593 0.00705056
              CHANNELS 6 Xposition Yposition Zposition Zrotation Xrotation Yrotation
              JOINT RightForeArm
              {
                OFFSET -26.5064 -0.0177507 0.0258232
                CHANNELS 6 Xposition Yposition Zposition Zrotation Xrotation Yrotation
                JOINT RightHand
                {
                  OFFSET -25.9933 -0.0201129 0.02194
                  CHANNELS 6 Xposition Yposition Zposition Zrotation Xrotation Yrotation
                  JOINT RightHandThumb1
                  {
                    OFFSET -2.48905 0.190105 3.12053
                    CHANNELS 6 Xposition Yposition Zposition Zrotation Xrotation Yrotation
                    JOINT RightHandThumb2
                    {
                      OFFSET -3.68274 0 0
                      CHANNELS 6 Xposition Yposition Zposition Zrotation Xrotation Yrotation
                      JOINT RightHandThumb3
                      {
                        OFFSET -2.55832 0 0
                        CHANNELS 6 Xposition Yposition Zposition Zrotation Xrotation Yrotation
                        End Site
                        {
                          OFFSET -2.194 0 0
                        }
                      }
                    }
                  }
                  JOINT RightInHandIndex
                  {
                    OFFSET -3.22368 0.508421 1.97842
                    CHANNELS 6 Xposition Yposition Zposition Zrotation Xrotation Yrotation
                    JOINT RightHandIndex1
                    {
                      OFFSET -5.21684 -0.091368 0.999158
                      CHANNELS 6 Xposition Yposition Zposition Zrotation Xrotation Yrotation
                      JOINT RightHandIndex2
                      {
                        OFFSET -3.61937 0 0
                        CHANNELS 6 Xposition Yposition Zposition Zrotation Xrotation Yrotation
                        JOINT RightHandIndex3
                        {
                          OFFSET -2.0521 0 0
                          CHANNELS 6 Xposition Yposition Zposition Zrotation Xrotation Yrotation
                          End Site
                          {
                            OFFSET -1.805 0 0
                          }
                        }
                      }
                    }
                  }
                  JOINT RightInHandMiddle
                  {
                    OFFSET -3.38211 0.517263 0.756737
                    CHANNELS 6 Xposition Yposition Zposition Zrotation Xrotation Yrotation
                    JOINT RightHandMiddle1
                    {
                      OFFSET -5.17411 -0.084 0.313895
                      CHANNELS 6 Xposition Yposition Zposition Zrotation Xrotation Yrotation
                      JOINT RightHandMiddle2
                      {
                        OFFSET -3.94947 0 0
                        CHANNELS 6 Xposition Yposition Zposition Zrotation Xrotation Yrotation
                        JOINT RightHandMiddle3
                        {
                          OFFSET -2.47579 0 0
                          CHANNELS 6 Xposition Yposition Zposition Zrotation Xrotation Yrotation
                          End Site
                          {
                            OFFSET -1.975 0 0
                          }
                        }
                      }
                    }
                  }
                  JOINT RightInHandRing
                  {
                    OFFSET -3.36516 0.537895 -0.128947
                    CHANNELS 6 Xposition Yposition Zposition Zrotation Xrotation Yrotation
                    JOINT RightHandRing1
                    {
                      OFFSET -4.63474 -0.022105 -0.478947
                      CHANNELS 6 Xposition Yposition Zposition Zrotation Xrotation Yrotation
                      JOINT RightHandRing2
                      {
                        OFFSET -3.44238 0 0
                        CHANNELS 6 Xposition Yposition Zposition Zrotation Xrotation Yrotation
                        JOINT RightHandRing3
                        {
                          OFFSET -2.3881 0 0
                          CHANNELS 6 Xposition Yposition Zposition Zrotation Xrotation Yrotation
                          End Site
                          {
                            OFFSET -1.857 0 0
                          }
                        }
                      }
                    }
                  }
                  JOINT RightInHandPinky
                  {
                    OFFSET -3.16105 0.469368 -1.20179
                    CHANNELS 6 Xposition Yposition Zposition Zrotation Xrotation Yrotation
                    JOINT RightHandPinky1
                    {
                      OFFSET -4.14105 -0.022105 -1.09053
                      CHANNELS 6 Xposition Yposition Zposition Zrotation Xrotation Yrotation
                      JOINT RightHandPinky2
                      {
                        OFFSET -2.75653 0 0
                        CHANNELS 6 Xposition Yposition Zposition Zrotation Xrotation Yrotation
                        JOINT RightHandPinky3
                        {
                          OFFSET -1.74189 0 0
                          CHANNELS 6 Xposition Yposition Zposition Zrotation Xrotation Yrotation
                          End Site
                          {
                            OFFSET -1.645 0 0
                          }
                        }
                      }
                    }
                  }
                }
              }
            }
          }
          JOINT LeftShoulder
          {
            OFFSET 3.2259 6.91998 -0.00872349
            CHANNELS 6 Xposition Yposition Zposition Zrotation Xrotation Yrotation
            JOINT LeftArm
            {
              OFFSET 12.8079 -0.0140762 -0.0286605
              CHANNELS 6 Xposition Yposition Zposition Zrotation Xrotation Yrotation
              JOINT LeftForeArm
              {
                OFFSET 26.5071 -0.0235899 -0.00806802
                CHANNELS 6 Xposition Yposition Zposition Zrotation Xrotation Yrotation
                JOINT LeftHand
                {
                  OFFSET 25.9974 -0.0303207 -0.0235047
                  CHANNELS 6 Xposition Yposition Zposition Zrotation Xrotation Yrotation
                  JOINT LeftHandThumb1
                  {
                    OFFSET 2.48905 0.190105 3.12053
                    CHANNELS 6 Xposition Yposition Zposition Zrotation Xrotation Yrotation
                    JOINT LeftHandThumb2
                    {
                      OFFSET 3.68274 0 0
                      CHANNELS 6 Xposition Yposition Zposition Zrotation Xrotation Yrotation
                      JOINT LeftHandThumb3
                      {
                        OFFSET 2.55832 0 0
                        CHANNELS 6 Xposition Yposition Zposition Zrotation Xrotation Yrotation
                        End Site
                        {
                          OFFSET 2.194 0 0
                        }
                      }
                    }
                  }
                  JOINT LeftInHandIndex
                  {
                    OFFSET 3.22368 0.508421 1.97842
                    CHANNELS 6 Xposition Yposition Zposition Zrotation Xrotation Yrotation
                    JOINT LeftHandIndex1
                    {
                      OFFSET 5.21684 -0.091368 0.999158
                      CHANNELS 6 Xposition Yposition Zposition Zrotation Xrotation Yrotation
                      JOINT LeftHandIndex2
                      {
                        OFFSET 3.61937 0 0
                        CHANNELS 6 Xposition Yposition Zposition Zrotation Xrotation Yrotation
                        JOINT LeftHandIndex3
                        {
                          OFFSET 2.0521 0 0
                          CHANNELS 6 Xposition Yposition Zposition Zrotation Xrotation Yrotation
                          End Site
                          {
                            OFFSET 1.805 0 0
                          }
                        }
                      }
                    }
                  }
                  JOINT LeftInHandMiddle
                  {
                    OFFSET 3.38211 0.517263 0.756737
                    CHANNELS 6 Xposition Yposition Zposition Zrotation Xrotation Yrotation
                    JOINT LeftHandMiddle1
                    {
                      OFFSET 5.17411 -0.084 0.313895
                      CHANNELS 6 Xposition Yposition Zposition Zrotation Xrotation Yrotation
                      JOINT LeftHandMiddle2
                      {
                        OFFSET 3.94947 0 0
                        CHANNELS 6 Xposition Yposition Zposition Zrotation Xrotation Yrotation
                        JOINT LeftHandMiddle3
                        {
                          OFFSET 2.47579 0 0
                          CHANNELS 6 Xposition Yposition Zposition Zrotation Xrotation Yrotation
                          End Site
                          {
                            OFFSET 1.975 0 0
                          }
                        }
                      }
                    }
                  }
                  JOINT LeftInHandRing
                  {
                    OFFSET 3.36516 0.537895 -0.128947
                    CHANNELS 6 Xposition Yposition Zposition Zrotation Xrotation Yrotation
                    JOINT LeftHandRing1
                    {
                      OFFSET 4.63474 -0.022105 -0.478947
                      CHANNELS 6 Xposition Yposition Zposition Zrotation Xrotation Yrotation
                      JOINT LeftHandRing2
                      {
                        OFFSET 3.44238 0 0
                        CHANNELS 6 Xposition Yposition Zposition Zrotation Xrotation Yrotation
                        JOINT LeftHandRing3
                        {
                          OFFSET 2.3881 0 0
                          CHANNELS 6 Xposition Yposition Zposition Zrotation Xrotation Yrotation
                          End Site
                          {
                            OFFSET 1.857 0 0
                          }
                        }
                      }
                    }
                  }
                  JOINT LeftInHandPinky
                  {
                    OFFSET 3.16105 0.469368 -1.20179
                    CHANNELS 6 Xposition Yposition Zposition Zrotation Xrotation Yrotation
                    JOINT LeftHandPinky1
                    {
                      OFFSET 4.14105 -0.022105 -1.09053
                      CHANNELS 6 Xposition Yposition Zposition Zrotation Xrotation Yrotation
                      JOINT LeftHandPinky2
                      {
                        OFFSET 2.75653 0 0
                        CHANNELS 6 Xposition Yposition Zposition Zrotation Xrotation Yrotation
                        JOINT LeftHandPinky3
                        {
                          OFFSET 1.74189 0 0
                          CHANNELS 6 Xposition Yposition Zposition Zrotation Xrotation Yrotation
                          End Site
                          {
                            OFFSET 1.645 0 0
                          }
                        }
                      }
                    }
                  }
                }
              }
            }
          }
        }
      }
    }
  }
}
MOTION
Frames:	3
Frame Time:	0.00833333
366.968 89.8584 201.872 22.9132 15.6275 -60.0829 -9.27335 -1.56761 0.0107022 -12.5838 -51.3962 -16.798 -0.00417653 -41.8888 0.0332927 -4.52003 28.4029 -12.7883 0.53573 -42.1246 0.242416 9.63242 -1.54819 25.5575 9.28656 -1.61166 -0.0155815 6.14699 -46.1822 -10.2034 0.0376823 -41.8816 -0.00845193 7.87043 29.6964 -2.22716 -0.126491 -41.5001 -0.19715 -13.3147 -11.5911 -20.8964 0.0229025 14.3001 0.0223296 -3.78825 15.0557 10.9054 0.013513 9.71978 0.0100827 -0.685258 3.72139 2.67916 0.0255674 10.1141 0.00109509 -1.17441 5.9489 4.46921 0.0238651 9.71689 -0.00248792 -0.0556618 -0.530407 -0.560122 0.0180927 10.3846 0.0154169 -0.0554633 -0.533292 -0.558225 0.0126586 9.47051 0.0094727 -1.81745 -9.97747 -9.79591 -3.18283 6.92816 0.00496977 0.194283 -14.3684 25.1412 -12.792 -0.0136593 0.00705056 64.7929 3.30366 52.4342 -26.5064 -0.0177507 0.0258232 16.3948 -50.0476 -0.654957 -25.9933 -0.0201129 0.02194 13.0556 -25.9557 -17.3509 -2.48905 0.190105 3.12053 28.184 10.7294 19.1592 -3.68274 0 0 1.69893e-14 4.77083e-15 -10 -2.55832 0 5.68434e-14 7.30047e-15 4.77083e-15 -10 -3.22368 0.508421 1.97842 2.64834e-31 -3.18055e-15 4.77083e-15 -5.21684 -0.091368 0.999158 19.9818 0.871897 2.3964 -3.61937 2.84217e-14 0 24 -2.38542e-15 -0 -2.0521 -1.42109e-14 -2.84217e-14 20 5.56597e-15 9.54166e-15 -3.38211 0.517263 0.756737 2.64834e-31 -3.18055e-15 4.77083e-15 -5.17411 -0.084 0.313895 20 0 -6.36111e-15 -3.94947 0 0 24 6.36111e-15 3.18055e-15 -2.47579 0 2.84217e-14 20 4.67144e-15 6.36111e-15 -3.36516 0.537895 -0.128947 2.64834e-31 -3.18055e-15 4.77083e-15 -4.63474 -0.022105 -0.478947 19.9748 -1.02565 -2.81938 -3.44238 0 0 24 0 -6.36111e-15 -2.3881 -1.42109e-14 2.84217e-14 20 3.85145e-16 1.27222e-14 -3.16105 0.469368 -1.20179 2.64834e-31 -3.18055e-15 4.77083e-15 -4.14105 -0.022105 -1.09053 19.7815 -3.00948 -8.30515 -2.75653 2.84217e-14 0 24 4.77083e-15 9.54166e-15 -1.74189 -2.84217e-14 0 20 7.95139e-15 -3.18055e-15 3.2259 6.91998 -0.00872349 16.1082 -13.8809 -29.8092 12.8079 -0.0140762 -0.0286605 -34.6693 33.2568 -69.1691 26.5071 -0.0235899 -0.00806802 12.9678 -80.642 13.7721 25.9974 -0.0303207 -0.0235047 -26.8994 -23.5777 7.98932 2.48905 0.190105 3.12053 -28.184 10.7294 -19.1592 3.68274 2.84217e-14 -2.84217e-14 -4.35126e-15 6.36111e-15 10 2.55832 0 0 3.51003e-15 -1.59028e-15 10 3.22368 0.508421 1.97842 7.95139e-15 -3.18055e-15 -3.18055e-15 5.21684 -0.091368 0.999158 -19.9818 0.871897 -2.3964 3.61937 0 -2.84217e-14 -24 -3.97569e-16 -0 2.0521 -7.10543e-15 0 -20 -3.18055e-15 3.18055e-15 3.38211 0.517263 0.756737 7.95139e-15 -3.18055e-15 -3.18055e-15 5.17411 -0.084 0.313895 -20 4.77083e-15 9.54166e-15 3.94947 0 2.84217e-14 -24 6.4605e-15 6.36111e-15 2.47579 0 0 -20 -1.59028e-15 3.18055e-15 3.36516 0.537895 -0.128947 7.95139e-15 -3.18055e-15 -3.18055e-15 4.63474 -0.022105 -0.478947 -19.9748 -1.02565 2.81938 3.44238 0 0 -24 -5.96354e-16 -3.18055e-15 2.3881 1.42109e-14 -2.84217e-14 -20 0 -6.36111e-15 3.16105 0.469368 -1.20179 7.95139e-15 -3.18055e-15 -3.18055e-15 4.14105 -0.022105 -1.09053 -19.7815 -3.00948 8.30515 2.75653 -2.84217e-14 0 -24 2.38542e-15 9.54166e-15 1.74189 0 2.84217e-14 -20 0 -6.36111e-15 
366.969 89.8575 201.866 22.9184 15.6262 -60.0877 -9.27319 -1.56783 0.0109183 -12.5796 -51.3987 -16.7916 -0.00427759 -41.8888 0.0321642 -4.51558 28.387 -12.7709 0.530908 -42.125 0.242224 9.62592 -1.53568 25.5329 9.28652 -1.61364 -0.0184432 6.16507 -46.2016 -10.1751 0.0364429 -41.882 -0.0092396 7.86602 29.7107 -2.24349 -0.12634 -41.4995 -0.196589 -13.3145 -11.5916 -20.8943 0.0230431 14.3001 0.0223261 -3.78712 15.0469 10.9065 0.0136142 9.71976 0.0100474 -0.685613 3.72139 2.68011 0.0257013 10.1141 0.000983537 -1.17459 5.94633 4.47058 0.0240078 9.71689 -0.002556 -0.055832 -0.52949 -0.560301 0.0180292 10.3846 0.0156579 -0.0556214 -0.532376 -0.55838 0.0124826 9.47054 0.00879937 -1.82749 -9.9692 -9.78642 -3.18261 6.92822 0.00507472 0.195367 -14.3573 25.143 -12.792 -0.0134939 0.00768851 64.7978 3.30282 52.4337 -26.5064 -0.0175221 0.0247955 16.462 -50.0807 -0.587345 -25.9932 -0.0199622 0.0219054 13.049 -25.9527 -17.3518 -2.48905 0.190105 3.12053 28.184 10.7294 19.1592 -3.68274 0 0 4.35126e-15 6.36111e-15 -10 -2.55832 -2.84217e-14 -2.84217e-14 1.40204e-15 7.95139e-15 -10 -3.22368 0.508421 1.97842 6.36111e-15 0 7.95139e-15 -5.21684 -0.091368 0.999158 19.9818 0.871897 2.3964 -3.61937 0 -5.68434e-14 24 1.59028e-15 -3.18055e-15 -2.0521 2.84217e-14 -2.84217e-14 20 3.77691e-15 2.22639e-14 -3.38211 0.517263 0.756737 6.36111e-15 0 7.95139e-15 -5.17411 -0.084 0.313895 20 3.18055e-15 3.18055e-15 -3.94947 2.84217e-14 2.84217e-14 24 3.18055e-15 -3.18055e-15 -2.47579 4.26326e-14 -5.68434e-14 20 3.37934e-15 6.36111e-15 -3.36516 0.537895 -0.128947 6.36111e-15 0 7.95139e-15 -4.63474 -0.022105 -0.478947 19.9748 -1.02565 -2.81938 -3.44238 0 0 24 0 6.36111e-15 -2.3881 0 5.68434e-14 20 8.57259e-15 1.27222e-14 -3.16105 0.469368 -1.20179 6.36111e-15 0 7.95139e-15 -4.14105 -0.022105 -1.09053 19.7815 -3.00948 -8.30515 -2.75653 -2.84217e-14 0 24 -1.59028e-15 -3.18055e-15 -1.74189 0 -2.84217e-14 20 1.19271e-15 9.54166e-15 3.22599 6.91999 -0.00880884 16.0989 -13.8732 -29.8098 12.8088 -0.0136289 -0.0286256 -34.6615 33.2636 -69.1643 26.5071 -0.0233235 -0.00607175 12.8923 -80.5831 13.6988 25.9974 -0.0309225 -0.0241986 -26.9417 -23.5282 7.96784 2.48905 0.190105 3.12053 -28.184 10.7294 -19.1592 3.68274 0 0 -5.83078e-15 -1.27222e-14 10 2.55832 0 -2.84217e-14 -6.45924e-15 0 10 3.22368 0.508421 1.97842 1.59028e-15 0 3.18055e-15 5.21684 -0.091368 0.999158 -19.9818 0.871897 -2.3964 3.61937 -2.84217e-14 2.84217e-14 -24 -8.94531e-16 6.36111e-15 2.0521 1.42109e-14 -2.84217e-14 -20 -1.59028e-15 -3.18055e-15 3.38211 0.517263 0.756737 1.59028e-15 0 3.18055e-15 5.17411 -0.084 0.313895 -20 6.36111e-15 -1.27222e-14 3.94947 -2.84217e-14 2.84217e-14 -24 4.39811e-15 -6.36111e-15 2.47579 -7.10543e-15 2.84217e-14 -20 3.18055e-15 9.54166e-15 3.36516 0.537895 -0.128947 1.59028e-15 0 3.18055e-15 4.63474 -0.022105 -0.478947 -19.9748 -1.02565 2.81938 3.44238 0 0 -24 1.17283e-14 -1.27222e-14 2.3881 1.42109e-14 0 -20 0 -0 3.16105 0.469368 -1.20179 1.59028e-15 0 3.18055e-15 4.14105 -0.022105 -1.09053 -19.7815 -3.00948 8.30515 2.75653 0 0 -24 -1.98785e-15 -6.36111e-15 1.74189 0 0 -20 1.59028e-15 -3.18055e-15 
366.968 89.8565 201.858 22.9226 15.6174 -60.105 -9.27303 -1.568 0.0111399 -12.5649 -51.4111 -16.7591 -0.00215289 -41.8888 0.031171 -4.52964 28.3791 -12.7617 0.530869 -42.1254 0.240265 9.63302 -1.51874 25.5198 9.2864 -1.61639 -0.0186414 6.18647 -46.2194 -10.13 0.0327393 -41.8823 -0.00999583 7.85696 29.7227 -2.24836 -0.126153 -41.499 -0.195947 -13.3161 -11.5909 -20.903 0.0231846 14.3001 0.0223227 -3.79185 15.0309 10.9137 0.0137115 9.71974 0.0100127 -0.68598 3.72137 2.68113 0.0258356 10.1141 0.00087126 -1.17456 5.94059 4.47215 0.0241513 9.71689 -0.00262417 -0.0560068 -0.528574 -0.560485 0.0179722 10.3845 0.0159056 -0.0557852 -0.531461 -0.558537 0.0123118 9.47057 0.00813751 -1.83489 -9.95802 -9.7767 -3.18239 6.92828 0.00517519 0.198253 -14.3303 25.1613 -12.7919 -0.0133269 0.00987033 64.8056 3.27111 52.4326 -26.5064 -0.0172797 0.0347302 16.5656 -50.1694 -0.50489 -25.9932 -0.0218419 0.0218897 13.1511 -25.8823 -17.3197 -2.48905 0.190105 3.12053 28.184 10.7294 19.1592 -3.68274 0 -5.68434e-14 6.87985e-15 2.38542e-15 -10 -2.55832 0 0 -2.80409e-16 -1.59028e-15 -10 -3.22368 0.508421 1.97842 6.36111e-15 -3.18055e-15 -4.77083e-15 -5.21684 -0.091368 0.999158 19.9818 0.871897 2.3964 -3.61937 0 -2.84217e-14 24 0 -3.18055e-15 -2.0521 -1.42109e-14 5.68434e-14 20 -1.19271e-15 -3.18055e-15 -3.38211 0.517263 0.756737 6.36111e-15 -3.18055e-15 -4.77083e-15 -5.17411 -0.084 0.313895 20 -3.18055e-15 -3.18055e-15 -3.94947 -2.84217e-14 5.68434e-14 24 -3.18055e-15 -0 -2.47579 1.42109e-14 0 20 5.46658e-15 -0 -3.36516 0.537895 -0.128947 6.36111e-15 -3.18055e-15 -4.77083e-15 -4.63474 -0.022105 -0.478947 19.9748 -1.02565 -2.81938 -3.44238 -2.84217e-14 -2.84217e-14 24 0 -6.36111e-15 -2.3881 -1.42109e-14 5.68434e-14 20 6.28657e-15 -9.54166e-15 -3.16105 0.469368 -1.20179 6.36111e-15 -3.18055e-15 -4.77083e-15 -4.14105 -0.022105 -1.09053 19.7815 -3.00948 -8.30515 -2.75653 0 5.68434e-14 24 -3.18055e-15 -1.27222e-14 -1.74189 -2.84217e-14 0 20 4.17448e-15 6.36111e-15 3.22607 6.91999 -0.00889457 16.0828 -13.8562 -29.8091 12.8097 -0.0226622 -0.0339862 -34.6106 33.2034 -69.2427 26.5072 -0.0329457 -0.0174273 13.0771 -80.4703 13.9671 25.9974 -0.0314605 -0.024857 -27.0412 -23.4107 7.91749 2.48905 0.190105 3.12053 -28.184 10.7294 -19.1592 3.68274 0 0 1.07429e-14 3.18055e-15 10 2.55832 0 0 7.23282e-15 4.77083e-15 10 3.22368 0.508421 1.97842 1.59028e-15 -3.18055e-15 -6.36111e-15 5.21684 -0.091368 0.999158 -19.9818 0.871897 -2.3964 3.61937 2.84217e-14 0 -24 3.97569e-15 6.36111e-15 2.0521 0 -2.84217e-14 -20 0 3.18055e-15 3.38211 0.517263 0.756737 1.59028e-15 -3.18055e-15 -6.36111e-15 5.17411 -0.084 0.313895 -20 -3.18055e-15 -3.18055e-15 3.94947 -2.84217e-14 0 -24 -2.23633e-16 3.18055e-15 2.47579 -1.42109e-14 -2.84217e-14 -20 1.59028e-15 -0 3.36516 0.537895 -0.128947 1.59028e-15 -3.18055e-15 -6.36111e-15 4.63474 -0.022105 -0.478947 -19.9748 -1.02565 2.81938 3.44238 -5.68434e-14 -2.84217e-14 -24 7.95139e-16 -6.36111e-15 2.3881 -7.10543e-15 -2.84217e-14 -20 0 -0 3.16105 0.469368 -1.20179 1.59028e-15 -3.18055e-15 -6.36111e-15 4.14105 -0.022105 -1.09053 -19.7815 -3.00948 8.30515 2.75653 0 2.84217e-14 -24 -4.37326e-15 6.36111e-15 1.74189 0 0 -20 3.18055e-15 9.54166e-15 
